<?xml version="1.0" encoding="UTF-8"?>
<svg width="300px" height="300px" viewBox="0 0 300 300" version="1.1" xmlns="http://www.w3.org/2000/svg" xmlns:xlink="http://www.w3.org/1999/xlink">
    <!-- Generator: Sketch 42 (36781) - http://www.bohemiancoding.com/sketch -->
    <title>Artboard</title>
    <desc>Created with Sketch.</desc>
    <defs></defs>
    <g id="Page-1" stroke="none" stroke-width="1" fill="none" fill-rule="evenodd">
        <g id="Artboard" fill-rule="nonzero" fill="#000000">
            <g id="1488954816_20-rss" transform="translate(34.000000, 32.000000)">
                <g id="Layer_1">
                    <path d="M0.0376,124.470588 C29.1306,124.470588 56.4799,135.849412 77.033,156.545882 C97.6237,177.242353 108.9601,204.809412 108.9601,234.155294 L153.7934,234.155294 C153.7934,148.917647 84.8162,79.5764706 0.0376,79.5764706 L0.0376,124.470588 L0.0376,124.470588 Z M0.1081,44.8894118 C103.7948,44.8894118 188.1551,129.816471 188.1551,234.211765 L232.9884,234.211765 C232.9884,105.058824 128.5121,0 0.1081,0 L0.1081,44.8894118 L0.1081,44.8894118 Z M62.1058,202.851765 C62.1058,220.018824 48.1985,233.943529 31.0529,233.943529 C13.9073,233.943529 1.42108547e-14,220.023529 1.42108547e-14,202.851765 C1.42108547e-14,185.675294 13.9026,171.76 31.0482,171.76 C48.1938,171.76 62.1058,185.675294 62.1058,202.851765 Z" id="Shape"></path>
                </g>
            </g>
        </g>
    </g>
</svg>